<svg class="w-20 h-20 text-blue-500" viewBox="0 0 100 100" aria-hidden="true">
  <!-- Head -->
  <path d="M70 35 Q75 30 80 35 L82 38 Q83 40 80 41 L75 42 Q72 42 70 40 Z" 
        fill="#8E44AD" />
  <!-- Eye -->
  <circle cx="77" cy="37" r="1.5" fill="#E67E22" />
  <!-- Body -->
  <path d="M40 40 Q50 35 60 38 L70 40 Q72 42 65 45 L55 47 Q45 48 40 45 Z" 
        fill="#8E44AD" />
  <!-- Legs -->
  <path d="M45 45 L48 55 L43 55 L40 45" fill="#8E44AD" />
  <path d="M55 45 L58 55 L53 55 L50 45" fill="#8E44AD" />
  <!-- Tail -->
  <path d="M40 42 Q30 45 25 42 Q20 40 30 38 Q35 37 40 40" fill="#8E44AD" />
</svg>