<svg viewBox="0 0 200 100">
  <!-- Long Neck -->
  <path d="M120 60 Q140 40 150 20 Q155 15 160 20 Q165 25 160 30 Q150 45 130 65" 
        fill="#E67E22" />
  <!-- Head -->
  <path d="M160 20 Q165 15 170 20 L175 25 Q177 27 175 28 L170 30 Q167 31 165 28 Z" 
        fill="#E67E22" />
  <!-- Body -->
  <path d="M40 60 Q60 55 80 58 L120 60 Q130 60 120 65 L80 70 Q60 72 40 65 Z" 
        fill="#E67E22" />
  <!-- Legs -->
  <path d="M60 65 L65 80 L55 80 L50 65" fill="#E67E22" />
  <path d="M80 65 L85 80 L75 80 L70 65" fill="#E67E22" />
  <path d="M100 65 L105 80 L95 80 L90 65" fill="#E67E22" />
  <path d="M120 65 L125 80 L115 80 L110 65" fill="#E67E22" />
  <!-- Tail -->
  <path d="M40 62 Q20 65 10 62 Q5 60 15 58 Q25 56 40 60" fill="#E67E22" />
</svg>