<svg viewBox="0 0 100 100">
  <!-- Head -->
  <path d="M60 30 Q65 25 70 30 L75 35 Q78 38 75 40 L70 42 Q68 43 65 41 L60 38 Q58 36 60 30" 
        fill="#2C3E50" />
  <!-- Eye -->
  <circle cx="68" cy="34" r="2" fill="#E67E22" />
  <!-- Body -->
  <path d="M30 40 Q40 35 50 38 L60 38 Q65 38 60 45 L50 50 Q45 52 40 50 L30 45 Q25 42 30 40" 
        fill="#2C3E50" />
  <!-- Legs -->
  <path d="M35 50 L38 60 L33 60 L30 50" fill="#2C3E50" />
  <path d="M45 50 L48 60 L43 60 L40 50" fill="#2C3E50" />
  <!-- Arm -->
  <path d="M45 42 Q48 44 47 46 Q46 48 44 47 Q42 46 45 42" fill="#2C3E50" />
  <!-- Tail -->
  <path d="M30 42 Q20 45 15 42 Q10 40 20 38 Q25 37 30 40" fill="#2C3E50" />
</svg>