<svg viewBox="0 0 100 100">
  <!-- Head -->
  <path d="M50 30 Q55 25 60 30 L65 35 Q67 37 65 38 L60 40 Q57 41 55 38 Z" 
        fill="#8E44AD" />
  <!-- Eye -->
  <circle cx="58" cy="33" r="1.5" fill="#E67E22" />
  <!-- Body -->
  <path d="M30 40 Q40 35 50 38 L55 38 Q58 38 55 42 L45 45 Q35 46 30 43 Z" 
        fill="#8E44AD" />
  <!-- Legs -->
  <path d="M35 43 L37 50 L33 50 L31 43" fill="#8E44AD" />
  <path d="M45 43 L47 50 L43 50 L41 43" fill="#8E44AD" />
  <!-- Tail -->
  <path d="M30 41 Q25 43 22 41 Q20 40 25 38 Q28 37 30 40" fill="#8E44AD" />
</svg>